<svg width="21" height="20" viewBox="0 0 21 20" fill="none" xmlns="http://www.w3.org/2000/svg">
<g clip-path="url(#clip0_15_71)">
<g clip-path="url(#clip1_15_71)">
<g clip-path="url(#clip2_15_71)">
<path d="M20.6926 9.91073C20.6926 4.4593 16.2733 0.0400391 10.8219 0.0400391C5.37043 0.0400391 0.951172 4.4593 0.951172 9.91073C0.951172 14.8374 4.56074 18.921 9.27957 19.6615V12.764H6.77334V9.91073H9.27957V7.73609C9.27957 5.26225 10.7532 3.89578 13.0079 3.89578C14.0878 3.89578 15.2174 4.08857 15.2174 4.08857V6.51768H13.9728C12.7466 6.51768 12.3642 7.27856 12.3642 8.05915V9.91073H15.1017L14.6641 12.764H12.3642V19.6615C17.083 18.921 20.6926 14.8374 20.6926 9.91073Z" fill="#1877F2"/>
<path d="M14.6632 12.7628L15.1008 9.90948H12.3633V8.0579C12.3633 7.27731 12.7457 6.51643 13.9719 6.51643H15.2166V4.08732C15.2166 4.08732 14.0869 3.89453 13.007 3.89453C10.7523 3.89453 9.27869 5.26101 9.27869 7.73485V9.90948H6.77246V12.7628H9.27869V19.6602C9.78119 19.7391 10.2963 19.7802 10.821 19.7802C11.3457 19.7802 11.8608 19.7391 12.3633 19.6602V12.7628H14.6632Z" fill="white"/>
</g>
</g>
</g>
<defs>
<clipPath id="clip0_15_71">
<rect width="20.5639" height="19.7445" fill="white" transform="translate(0.402344 0.0380859)"/>
</clipPath>
<clipPath id="clip1_15_71">
<rect width="20.5639" height="19.7445" fill="white" transform="translate(0.402344 0.0380859)"/>
</clipPath>
<clipPath id="clip2_15_71">
<rect width="20.5639" height="19.7414" fill="white" transform="translate(0.402344 0.0400391)"/>
</clipPath>
</defs>
</svg>
