<svg width="21" height="20" viewBox="0 0 21 20" fill="none" xmlns="http://www.w3.org/2000/svg">
<g clip-path="url(#clip0_15_52)">
<g clip-path="url(#clip1_15_52)">
<g clip-path="url(#clip2_15_52)">
<path fill-rule="evenodd" clip-rule="evenodd" d="M10.6806 3.85341C12.5344 3.85341 13.7848 4.65416 14.4978 5.32328L17.284 2.60292C15.5728 1.01239 13.3461 0.0361328 10.6806 0.0361328C6.8194 0.0361328 3.48477 2.25191 1.86133 5.47685L5.05336 7.95589C5.85411 5.57557 8.06989 3.85341 10.6806 3.85341Z" fill="#EA4335"/>
<path fill-rule="evenodd" clip-rule="evenodd" d="M20.159 10.1277C20.159 9.31599 20.0932 8.72365 19.9506 8.10938H10.6816V11.7731H16.1224C16.0127 12.6835 15.4203 14.0547 14.104 14.9761L17.2193 17.3893C19.084 15.6671 20.159 13.1333 20.159 10.1277Z" fill="#4285F4"/>
<path fill-rule="evenodd" clip-rule="evenodd" d="M5.06464 11.8597C4.85623 11.2454 4.73556 10.5872 4.73556 9.90714C4.73556 9.22705 4.85623 8.5689 5.05367 7.95462L1.86164 5.47559C1.19252 6.81383 0.808594 8.31661 0.808594 9.90714C0.808594 11.4977 1.19252 13.0005 1.86164 14.3387L5.06464 11.8597Z" fill="#FBBC05"/>
<path fill-rule="evenodd" clip-rule="evenodd" d="M10.6813 19.7801C13.3468 19.7801 15.5845 18.9026 17.2189 17.3888L14.1037 14.9756C13.27 15.557 12.1512 15.9628 10.6813 15.9628C8.07064 15.9628 5.85486 14.2407 5.06508 11.8604L1.87305 14.3394C3.49649 17.5643 6.82015 19.7801 10.6813 19.7801Z" fill="#34A853"/>
</g>
</g>
</g>
<defs>
<clipPath id="clip0_15_52">
<rect width="19.7445" height="19.7445" fill="white" transform="translate(0.808594 0.0380859)"/>
</clipPath>
<clipPath id="clip1_15_52">
<rect width="19.7445" height="19.7445" fill="white" transform="translate(0.808594 0.0380859)"/>
</clipPath>
<clipPath id="clip2_15_52">
<rect width="19.7445" height="19.7445" fill="white" transform="translate(0.808594 0.0380859)"/>
</clipPath>
</defs>
</svg>
