<svg width="20" height="20" viewBox="0 0 20 20" fill="none" xmlns="http://www.w3.org/2000/svg">
<g clip-path="url(#clip0_15_63)">
<g clip-path="url(#clip1_15_63)">
<g clip-path="url(#clip2_15_63)">
<path d="M18.5201 0.0395582H1.69526C0.900078 0.0305845 0.247986 0.667551 0.238281 1.46274V18.3577C0.247654 19.1533 0.899693 19.7909 1.69526 19.7826H18.5201C19.3172 19.7924 19.9718 19.1548 19.9828 18.3577V1.46152C19.9715 0.664761 19.3168 0.027831 18.5201 0.038211" fill="#0A66C2"/>
<path d="M14.1356 16.8606H17.0611L17.0623 11.692C17.0623 9.15469 16.5156 7.20428 13.5505 7.20428C12.4169 7.1622 11.3521 7.74702 10.7794 8.72615H10.7401V7.43863H7.93164V16.8602H10.8572V12.1994C10.8572 10.9704 11.0903 9.78002 12.614 9.78002C14.1161 9.78002 14.1356 11.1864 14.1356 12.2789V16.8606Z" fill="white"/>
<path d="M2.93359 4.45295C2.93377 5.39059 3.694 6.15057 4.63162 6.15039C5.08188 6.15031 5.51367 5.97137 5.832 5.65292C6.15033 5.33447 6.32911 4.9026 6.32903 4.45234C6.32887 3.51469 5.56863 2.75472 4.63101 2.75488C3.69339 2.75506 2.93343 3.5153 2.93359 4.45295Z" fill="white"/>
<path d="M3.16406 16.8614H6.09263V7.43945H3.16406V16.8614Z" fill="white"/>
</g>
</g>
</g>
<defs>
<clipPath id="clip0_15_63">
<rect width="19.7445" height="19.7445" fill="white" transform="translate(0.238281 0.0380859)"/>
</clipPath>
<clipPath id="clip1_15_63">
<rect width="19.7445" height="19.7445" fill="white" transform="translate(0.238281 0.0380859)"/>
</clipPath>
<clipPath id="clip2_15_63">
<rect width="19.7445" height="19.7445" fill="white" transform="translate(0.238281 0.0380859)"/>
</clipPath>
</defs>
</svg>
