<svg width="13" height="14" viewBox="0 0 13 14" fill="none" xmlns="http://www.w3.org/2000/svg">
<g clip-path="url(#clip0_15_43)">
<path fill-rule="evenodd" clip-rule="evenodd" d="M5.3637 2.76199C4.31029 2.76199 3.45632 3.61596 3.45632 4.66939C3.45632 5.72283 4.31029 6.5768 5.3637 6.5768C6.41715 6.5768 7.27111 5.72283 7.27111 4.66939C7.27111 3.61596 6.41715 2.76199 5.3637 2.76199ZM2.69335 4.66939C2.69335 3.19459 3.88892 1.99902 5.3637 1.99902C6.83851 1.99902 8.03407 3.19459 8.03407 4.66939C8.03407 6.1442 6.83851 7.33976 5.3637 7.33976C3.88892 7.33976 2.69335 6.1442 2.69335 4.66939ZM9.54459 6.05275C10.0447 5.55261 10.8556 5.5526 11.3557 6.0527C11.8559 6.55284 11.8559 7.36372 11.3557 7.86387L8.07146 11.1481C8.0679 11.1516 8.06429 11.1552 8.06063 11.1589C8.01612 11.2035 7.96841 11.2513 7.91292 11.2921C7.86434 11.3277 7.81231 11.3583 7.75758 11.3835C7.69496 11.4122 7.63001 11.4307 7.56938 11.448C7.56445 11.4494 7.55951 11.4508 7.55463 11.4521L5.97718 11.9028C5.84396 11.9409 5.70058 11.9038 5.60261 11.8058C5.50465 11.7078 5.46752 11.5645 5.50556 11.4313L5.95627 9.85378C5.95764 9.8489 5.95907 9.84396 5.96049 9.83903C5.97774 9.7784 5.9962 9.71344 6.02494 9.65088C6.05007 9.5961 6.08069 9.54407 6.11634 9.49554C6.15713 9.44 6.2049 9.39229 6.24955 9.34778C6.25317 9.34417 6.25678 9.34056 6.26039 9.33695L9.54459 6.05275ZM10.8162 6.59221C10.6141 6.39008 10.2863 6.39008 10.0841 6.59221L6.79985 9.87646C6.77056 9.90576 6.75443 9.92194 6.74248 9.9346C6.73215 9.94559 6.73063 9.94803 6.73139 9.94701C6.72625 9.95398 6.72188 9.96141 6.71832 9.96924C6.71883 9.96807 6.71745 9.97061 6.71288 9.98496C6.70759 10.0015 6.70128 10.0236 6.68989 10.0634L6.42783 10.9806L7.34507 10.7186C7.38489 10.7072 7.40687 10.7008 7.42345 10.6956C7.43779 10.691 7.44034 10.6896 7.43922 10.6901C7.44705 10.6865 7.45448 10.6822 7.46139 10.6771C7.46038 10.6778 7.46287 10.6763 7.47381 10.6659C7.48647 10.654 7.5027 10.6379 7.53199 10.6086L10.8162 7.32435C11.0184 7.12217 11.0184 6.7944 10.8162 6.59221ZM4.01938 8.35705C4.0433 8.35705 4.06755 8.35705 4.09212 8.35705H4.85508C5.06577 8.35705 5.23656 8.52785 5.23656 8.73853C5.23656 8.94921 5.06577 9.12001 4.85508 9.12001H4.09212C3.35452 9.12001 3.07029 9.12413 2.84929 9.19117C2.32096 9.35144 1.90752 9.76492 1.74725 10.2932C1.68021 10.5143 1.67607 10.7985 1.67607 11.5361C1.67607 11.7467 1.50527 11.9175 1.29459 11.9175C1.0839 11.9175 0.913106 11.7467 0.913106 11.5361C0.913106 11.5115 0.913101 11.4872 0.913096 11.4633C0.912954 10.8234 0.912862 10.4155 1.01714 10.0717C1.25138 9.29956 1.85564 8.6953 2.62781 8.46107C2.97157 8.35679 3.37945 8.3569 4.01938 8.35705Z" fill="white"/>
</g>
<defs>
<clipPath id="clip0_15_43">
<rect width="12.2074" height="12.2074" fill="white" transform="translate(0.277344 0.854492)"/>
</clipPath>
</defs>
</svg>
